<svg width="512" height="512" viewBox="0 0 512 512" xmlns="http://www.w3.org/2000/svg">
  <defs>
    <linearGradient id="bg" x1="0%" y1="0%" x2="100%" y2="100%">
      <stop offset="0%" style="stop-color:#16a34a;stop-opacity:1" />
      <stop offset="100%" style="stop-color:#15803d;stop-opacity:1" />
    </linearGradient>
  </defs>
  <!-- Background -->
  <rect width="512" height="512" rx="96" fill="url(#bg)"/>
  <!-- People icons -->
  <circle cx="176" cy="180" r="52" fill="white" opacity="0.95"/>
  <path d="M96 310 Q96 260 176 260 Q256 260 256 310 L256 340 Q256 360 236 360 L116 360 Q96 360 96 340 Z" fill="white" opacity="0.95"/>
  <circle cx="336" cy="180" r="52" fill="white" opacity="0.7"/>
  <path d="M256 310 Q256 260 336 260 Q416 260 416 310 L416 340 Q416 360 396 360 L276 360 Q256 360 256 340 Z" fill="white" opacity="0.7"/>
  <!-- Split line -->
  <line x1="256" y1="140" x2="256" y2="380" stroke="white" stroke-width="4" stroke-dasharray="12,8" opacity="0.6"/>
  <!-- Dollar sign -->
  <text x="256" y="460" font-family="Arial Black, sans-serif" font-size="72" font-weight="900" fill="white" text-anchor="middle" opacity="0.95">$SPLIT</text>
</svg>